<svg width="24" height="22" viewBox="0 0 24 22" fill="none" xmlns="http://www.w3.org/2000/svg">
<path fill-rule="evenodd" clip-rule="evenodd" d="M3.31403 1.38485C3.27933 1.24895 3.17652 1.14766 3.05024 1.12434L1.06672 0.75985C0.885225 0.727043 0.716284 0.861098 0.686184 1.05929C0.656084 1.25785 0.777725 1.44549 0.957896 1.47865L2.7348 1.80524L6.31329 15.7916C6.35328 15.9483 6.48319 16.0569 6.6313 16.0569L18.5326 16.0579C18.6655 16.0579 18.7855 15.9705 18.8371 15.8356L22.4744 6.36349C22.5177 6.25091 22.5068 6.12194 22.4457 6.02029C22.3842 5.91827 22.2807 5.85706 22.1699 5.85705L4.45817 5.85558L3.31403 1.38485ZM21.671 6.58565L18.3135 15.3292L6.88165 15.3282L4.64457 6.58424L21.671 6.58565ZM6.4978 19.6305C6.49772 20.6017 7.21151 21.3922 8.08865 21.3922C8.96586 21.3923 9.67969 20.602 9.67977 19.6307C9.67985 18.6594 8.96615 17.869 8.08894 17.8689C7.2118 17.8689 6.49788 18.6591 6.4978 19.6305ZM8.97268 19.6307C8.97264 20.1701 8.5759 20.6093 8.08871 20.6093C7.60152 20.6093 7.20486 20.17 7.2049 19.6305C7.20495 19.0911 7.60169 18.6518 8.08887 18.6519C8.57606 18.6519 8.97273 19.0912 8.97268 19.6307ZM16.7034 21.1412C15.8888 21.1412 15.2261 20.4072 15.2261 19.5053C15.2262 18.6034 15.8891 17.8695 16.7037 17.8696C17.5181 17.8696 18.1809 18.6036 18.1808 19.5056C18.1808 20.4074 17.5179 21.1413 16.7034 21.1412ZM16.7034 20.4142C17.1559 20.4143 17.5242 20.0065 17.5243 19.5055C17.5243 19.0046 17.156 18.5967 16.7036 18.5966C16.2512 18.5966 15.8828 19.0044 15.8828 19.5054C15.8827 20.0063 16.251 20.4142 16.7034 20.4142Z" fill="white"/>
<mask id="mask0_302_845" style="mask-type:luminance" maskUnits="userSpaceOnUse" x="-1" y="0" width="25" height="22">
<path d="M23.1831 0.00290329L0 0.000976562L-0.00181969 21.8962L23.1813 21.8981L23.1831 0.00290329Z" fill="white"/>
<path fill-rule="evenodd" clip-rule="evenodd" d="M3.31403 1.38592C3.27933 1.25002 3.17652 1.14873 3.05024 1.1254L1.06672 0.760918C0.885225 0.728111 0.716284 0.862166 0.686184 1.06036C0.656084 1.25892 0.777725 1.44655 0.957896 1.47972L2.7348 1.8063L6.31329 15.7927C6.35328 15.9493 6.48319 16.0579 6.6313 16.0579L18.5326 16.0589C18.6655 16.0589 18.7855 15.9715 18.8371 15.8367L22.4744 6.36455C22.5177 6.25198 22.5068 6.12301 22.4457 6.02136C22.3842 5.91934 22.2807 5.85812 22.1699 5.85812L4.45817 5.85664L3.31403 1.38592ZM21.671 6.58672L18.3135 15.3303L6.88165 15.3293L4.64457 6.58531L21.671 6.58672ZM6.4978 19.6315C6.49772 20.6028 7.21151 21.3932 8.08865 21.3933C8.96586 21.3934 9.67969 20.603 9.67977 19.6318C9.67985 18.6605 8.96615 17.8701 8.08894 17.87C7.2118 17.8699 6.49788 18.6602 6.4978 19.6315ZM8.97268 19.6317C8.97264 20.1712 8.5759 20.6104 8.08871 20.6104C7.60152 20.6103 7.20486 20.171 7.2049 19.6316C7.20495 19.0921 7.60169 18.6529 8.08887 18.6529C8.57606 18.653 8.97273 19.0923 8.97268 19.6317ZM16.7034 21.1423C15.8888 21.1422 15.2261 20.4082 15.2261 19.5064C15.2262 18.6045 15.8891 17.8706 16.7037 17.8706C17.5181 17.8707 18.1809 18.6047 18.1808 19.5066C18.1808 20.4085 17.5179 21.1424 16.7034 21.1423ZM16.7034 20.4153C17.1559 20.4154 17.5242 20.0075 17.5243 19.5066C17.5243 19.0056 17.156 18.5977 16.7036 18.5977C16.2512 18.5977 15.8828 19.0055 15.8828 19.5064C15.8827 20.0074 16.251 20.4153 16.7034 20.4153Z" fill="black"/>
</mask>
<g mask="url(#mask0_302_845)">
<path d="M1.06606 0.761127L1.11072 0.463195L1.11 0.463066L1.06606 0.761127ZM2.73414 1.80651L2.99656 1.72418L2.94941 1.53994L2.7788 1.50858L2.73414 1.80651ZM4.45751 5.85685L4.1951 5.93919L4.25131 6.15884L4.45749 6.15885L4.45751 5.85685ZM18.3128 15.3305L18.3128 15.6325L18.4932 15.6325L18.5639 15.4486L18.3128 15.3305ZM21.6704 6.58693L21.9214 6.7051L22.0827 6.28496L21.6704 6.28493L21.6704 6.58693ZM6.88099 15.3295L6.61854 15.4118L6.67474 15.6315L6.88096 15.6315L6.88099 15.3295ZM4.64391 6.58552L4.64393 6.28351L4.28316 6.28348L4.38149 6.66784L4.64391 6.58552ZM3.0047 1.4235C3.02784 1.42777 3.0452 1.44591 3.05092 1.4683L3.57583 1.30395C3.51214 1.05455 3.32389 0.870103 3.09446 0.827728L3.0047 1.4235ZM1.0214 1.05905L3.0047 1.4235L3.09446 0.827728L1.11072 0.463195L1.0214 1.05905ZM0.954492 1.11065C0.959514 1.07757 0.987704 1.05296 1.02212 1.05918L1.11 0.463066C0.781428 0.403677 0.471736 0.64718 0.416558 1.01049L0.954492 1.11065ZM1.00197 1.18201C0.969263 1.17599 0.949573 1.14311 0.954492 1.11065L0.416558 1.01049C0.361278 1.37514 0.58487 1.71752 0.912496 1.77784L1.00197 1.18201ZM2.7788 1.50858L1.00197 1.18201L0.912496 1.77784L2.68948 2.10443L2.7788 1.50858ZM6.57509 15.7107L2.99656 1.72418L2.47172 1.88883L6.05022 15.8752L6.57509 15.7107ZM6.63066 15.7561C6.60378 15.7561 6.58165 15.7364 6.57509 15.7107L6.05022 15.8752C6.12363 16.1627 6.36129 16.3601 6.63061 16.3601L6.63066 15.7561ZM18.532 15.7571L6.63066 15.7561L6.63061 16.3601L18.5319 16.3611L18.532 15.7571ZM18.5854 15.7187C18.577 15.7408 18.5565 15.7571 18.532 15.7571L18.5319 16.3611C18.7732 16.3612 18.9928 16.2022 19.0875 15.9547L18.5854 15.7187ZM22.2229 6.24639L18.5854 15.7187L19.0875 15.9547L22.7247 6.48293L22.2229 6.24639ZM22.218 6.18899C22.2282 6.20602 22.2301 6.22756 22.2229 6.24639L22.7247 6.48293C22.8041 6.2766 22.784 6.04041 22.672 5.85414L22.218 6.18899ZM22.1693 6.16033C22.189 6.16033 22.2072 6.17101 22.218 6.18899L22.672 5.85414C22.5599 5.66808 22.3711 5.55634 22.1693 5.55632L22.1693 6.16033ZM4.45749 6.15885L22.1693 6.16033L22.1693 5.55632L4.45754 5.55485L4.45749 6.15885ZM3.05092 1.4683L4.1951 5.93919L4.71992 5.77451L3.57583 1.30395L3.05092 1.4683ZM18.5639 15.4486L21.9214 6.7051L21.4194 6.46876L18.0618 15.2123L18.5639 15.4486ZM6.88096 15.6315L18.3128 15.6325L18.3128 15.0285L6.88101 15.0275L6.88096 15.6315ZM4.38149 6.66784L6.61854 15.4118L7.14337 15.2472L4.90632 6.5032L4.38149 6.66784ZM21.6704 6.28493L4.64393 6.28351L4.64388 6.88752L21.6704 6.88893L21.6704 6.28493ZM8.08801 21.0915C7.36149 21.0915 6.76982 20.4362 6.76988 19.6318L6.2244 19.6317C6.2243 20.7698 7.0602 21.6954 8.08796 21.6955L8.08801 21.0915ZM9.40637 19.632C9.4063 20.4364 8.81453 21.0916 8.08801 21.0915L8.08796 21.6955C9.11579 21.6956 9.95176 20.7701 9.95185 19.632L9.40637 19.632ZM8.08825 18.1722C8.81477 18.1723 9.40643 18.8275 9.40637 19.632L9.95185 19.632C9.95195 18.4939 9.11614 17.5683 8.0883 17.5682L8.08825 18.1722ZM6.76988 19.6318C6.76995 18.8273 7.36174 18.1722 8.08825 18.1722L8.0883 17.5682C7.06054 17.5681 6.22449 18.4936 6.2244 19.6317L6.76988 19.6318ZM8.08803 20.9126C8.72584 20.9126 9.24471 20.3382 9.24477 19.632L8.69928 19.6319C8.69925 20.0046 8.42464 20.3086 8.08808 20.3086L8.08803 20.9126ZM6.9315 19.6318C6.93144 20.338 7.45022 20.9125 8.08803 20.9126L8.08808 20.3086C7.75151 20.3085 7.47695 20.0045 7.47698 19.6318L6.9315 19.6318ZM8.08824 18.3511C7.45043 18.3511 6.93156 18.9255 6.9315 19.6318L7.47698 19.6318C7.47702 19.2591 7.75162 18.9551 8.08819 18.9552L8.08824 18.3511ZM9.24477 19.632C9.24483 18.9257 8.72605 18.3512 8.08824 18.3511L8.08819 18.9552C8.42475 18.9552 8.69931 19.2592 8.69928 19.6319L9.24477 19.632ZM14.9527 19.5066C14.9527 20.5752 15.7375 21.4444 16.7027 21.4445L16.7028 20.8405C16.0388 20.8405 15.4982 20.2417 15.4982 19.5066L14.9527 19.5066ZM16.703 17.5688C15.7379 17.5688 14.9528 18.4379 14.9527 19.5066L15.4982 19.5066C15.4983 18.7715 16.0391 18.1728 16.703 18.1729L16.703 17.5688ZM18.4529 19.5069C18.453 18.4382 17.6681 17.5689 16.703 17.5688L16.703 18.1729C17.3668 18.1729 17.9075 18.7717 17.9074 19.5068L18.4529 19.5069ZM16.7027 21.4445C17.6678 21.4446 18.4528 20.5755 18.4529 19.5069L17.9074 19.5068C17.9074 20.2419 17.3666 20.8406 16.7028 20.8405L16.7027 21.4445ZM17.2509 19.5068C17.2508 19.8409 17.0045 20.1135 16.7028 20.1135L16.7028 20.7175C17.3058 20.7176 17.7963 20.1745 17.7964 19.5068L17.2509 19.5068ZM16.7029 18.8999C17.0046 18.8999 17.2509 19.1726 17.2509 19.5068L17.7964 19.5068C17.7964 18.8391 17.306 18.296 16.703 18.2959L16.7029 18.8999ZM16.1549 19.5067C16.1549 19.1725 16.4011 18.8999 16.7029 18.8999L16.703 18.2959C16.0999 18.2959 15.6094 18.8389 15.6094 19.5066L16.1549 19.5067ZM16.7028 20.1135C16.401 20.1135 16.1548 19.8408 16.1549 19.5067L15.6094 19.5066C15.6093 20.1744 16.0997 20.7175 16.7028 20.7175L16.7028 20.1135Z" fill="white"/>
</g>
</svg>
