<svg width="13" height="13" viewBox="0 0 13 13" fill="none" xmlns="http://www.w3.org/2000/svg">
<path d="M5.6277 2.57928C5.77807 2.11663 6.43262 2.11668 6.58291 2.57936L7.34532 4.9265C7.41254 5.13342 7.60534 5.27352 7.8229 5.27354L10.2908 5.27375C10.7772 5.27379 10.9795 5.89632 10.5859 6.18223L8.5892 7.63264C8.41318 7.7605 8.33951 7.98716 8.40672 8.19408L9.16914 10.5412C9.31943 11.0039 8.78986 11.3886 8.39631 11.1026L6.39989 9.65187C6.22389 9.52398 5.98556 9.52396 5.80954 9.65182L3.81288 11.1022C3.41929 11.3881 2.88978 11.0034 3.04014 10.5407L3.80295 8.1937C3.8702 7.98679 3.79657 7.76012 3.62057 7.63222L1.62415 6.18148C1.2306 5.89551 1.43292 5.27301 1.9194 5.27305L4.38726 5.27326C4.60482 5.27328 4.79765 5.1332 4.86489 4.9263L5.6277 2.57928Z" fill="#B7ADA1"/>
</svg>
