<svg width="24" height="24" viewBox="0 0 24 24" fill="none" xmlns="http://www.w3.org/2000/svg">
<path d="M19.9969 12.0576C19.9973 7.61227 16.4159 4.00836 11.9976 4.00799C7.57928 4.00762 3.99726 7.61094 3.99689 12.0562C3.99656 16.0736 6.92175 19.4037 10.7462 20.0079L10.7467 14.3834L8.71545 14.3832L8.71564 12.0566L10.7469 12.0568L10.747 10.2835C10.7472 8.26626 11.9417 7.15208 13.769 7.15224C14.644 7.15231 15.5598 7.30959 15.5598 7.30959L15.5596 9.29037L14.5509 9.29029C13.5571 9.29021 13.2471 9.91067 13.247 10.5478L13.2469 12.057L15.4656 12.0572L15.1108 14.3838L13.2467 14.3836L13.2462 20.0081C17.0708 19.4046 19.9966 16.0749 19.9969 12.0576Z" fill="#403529"/>
</svg>
