<svg width="13" height="13" viewBox="0 0 13 13" fill="none" xmlns="http://www.w3.org/2000/svg">
<path d="M6.47047 2.57611C6.62084 2.11346 7.27539 2.11351 7.42568 2.57619L8.1881 4.92333C8.25531 5.13025 8.44811 5.27035 8.66567 5.27037L11.1335 5.27057C11.62 5.27061 11.8222 5.89314 11.4286 6.17905L9.43197 7.62946C9.25595 7.75733 9.18228 7.98399 9.2495 8.1909L10.0119 10.538C10.1622 11.0007 9.63263 11.3854 9.23909 11.0994L7.24266 9.6487C7.06667 9.52081 6.82833 9.52079 6.65231 9.64865L4.65565 11.0991C4.26206 11.385 3.73255 11.0002 3.88292 10.5375L4.64572 8.19052C4.71297 7.98362 4.63934 7.75694 4.46334 7.62905L2.46692 6.17831C2.07338 5.89233 2.27569 5.26984 2.76217 5.26988L5.23003 5.27008C5.44759 5.2701 5.64042 5.13003 5.70767 4.92312L6.47047 2.57611Z" fill="#FFBD27"/>
</svg>
