<svg width="24" height="24" viewBox="0 0 24 24" fill="none" xmlns="http://www.w3.org/2000/svg">
<path fill-rule="evenodd" clip-rule="evenodd" d="M12.0028 5.44872C14.1416 5.4489 14.3948 5.4583 15.236 5.49587C16.0176 5.53032 16.4398 5.66163 16.7211 5.77105C17.0932 5.91486 17.3621 6.08991 17.6404 6.36812C17.9217 6.64945 18.0937 6.91514 18.2376 7.2871C18.347 7.56841 18.4782 7.99351 18.5126 8.77178C18.55 9.6157 18.5594 9.86888 18.5592 12.0037C18.559 14.1416 18.5496 14.3948 18.512 15.2356C18.4775 16.0169 18.3462 16.4389 18.2368 16.7202C18.0929 17.0921 17.9177 17.3609 17.6395 17.6391C17.358 17.9203 17.0922 18.0923 16.7201 18.236C16.4387 18.3454 16.0134 18.4766 15.2349 18.5109C14.3906 18.5484 14.1373 18.5577 12.0017 18.5575C9.86295 18.5574 9.60967 18.548 8.76856 18.5104C7.98686 18.4759 7.56474 18.3446 7.28334 18.2352C6.91126 18.0914 6.64237 17.9163 6.3641 17.6382C6.08271 17.3568 5.91076 17.0911 5.76696 16.7191C5.65754 16.4379 5.52625 16.0127 5.49192 15.2345C5.45446 14.3906 5.4451 14.1374 5.44528 12.0026C5.44546 9.86466 5.45486 9.61149 5.49246 8.7707C5.52692 7.9893 5.65828 7.56736 5.76774 7.28606C5.91161 6.91412 6.08673 6.64534 6.36504 6.36718C6.64647 6.0859 6.91228 5.91401 7.28438 5.77027C7.5658 5.6609 7.99106 5.52965 8.76964 5.49533C9.61076 5.4579 9.86404 5.44854 12.0028 5.44872ZM12.0029 4.00782C9.82976 4.00763 9.55772 4.01699 8.7041 4.05443C7.8536 4.09186 7.26887 4.22934 6.76231 4.42621C6.23386 4.63246 5.7867 4.90435 5.34265 5.35128C4.89547 5.79508 4.62341 6.24201 4.41699 6.7671C4.21996 7.27656 4.08233 7.85791 4.04474 8.70807C4.00714 9.56448 3.99774 9.83641 3.99756 12.0087C3.99738 14.181 4.00674 14.4529 4.04419 15.3062C4.08164 16.1564 4.21917 16.7409 4.41612 17.2473C4.62245 17.7755 4.89444 18.2225 5.34155 18.6664C5.78552 19.1102 6.23263 19.3854 6.75792 19.5886C7.26758 19.7855 7.84916 19.923 8.69965 19.9606C9.55327 19.9982 9.8253 20.0076 11.9984 20.0078C14.1716 20.008 14.4436 19.9987 15.2973 19.9612C16.1478 19.9237 16.7325 19.7863 17.2391 19.5894C17.7644 19.3863 18.2115 19.1113 18.6556 18.6675C19.0996 18.2237 19.3748 17.7767 19.5781 17.2517C19.7751 16.7422 19.9128 16.1608 19.9504 15.3107C19.988 14.4574 19.9974 14.1855 19.9976 12.0132C19.9977 9.84086 19.9884 9.56894 19.9509 8.71564C19.9135 7.86547 19.7759 7.28097 19.5789 6.77461C19.3821 6.24324 19.11 5.79626 18.6629 5.35238C18.2189 4.90851 17.7718 4.63342 17.2466 4.43021C16.7369 4.23325 16.1553 4.09568 15.3048 4.0581C14.4481 4.0174 14.176 4.008 12.0029 4.00782ZM12.0028 7.89812C9.73268 7.89793 7.89083 9.73876 7.89064 12.008C7.89045 14.2771 9.732 16.1183 12.0021 16.1185C14.2721 16.1186 16.114 14.2778 16.1142 12.0086C16.1144 9.73944 14.2728 7.89831 12.0028 7.89812ZM12.0022 14.6744C10.5295 14.6743 9.33511 13.4802 9.33524 12.0081C9.33536 10.5359 10.5299 9.34203 12.0026 9.34215C13.4753 9.34227 14.6697 10.5364 14.6696 12.0085C14.6695 13.4806 13.4749 14.6745 12.0022 14.6744ZM16.2775 8.69589C16.8057 8.69593 17.2371 8.26776 17.2372 7.7364C17.2372 7.20817 16.8059 6.7768 16.2776 6.77676C15.7494 6.77672 15.318 7.20488 15.318 7.73624C15.3179 8.26447 15.7462 8.69584 16.2775 8.69589Z" fill="#403529"/>
</svg>
