<svg width="56" height="56" viewBox="0 0 56 56" fill="none" xmlns="http://www.w3.org/2000/svg">
<path d="M42.8933 21.0547H27.0608C26.3949 21.0547 25.8577 20.5151 25.8577 19.8515C25.8577 19.188 26.3973 18.6484 27.0608 18.6484H42.8933C43.5592 18.6484 44.0964 19.188 44.0964 19.8515C44.0964 20.5151 43.5568 21.0547 42.8933 21.0547ZM44.0964 24.1342C44.0964 23.4682 43.5568 22.931 42.8933 22.931H25.3522C24.6863 22.931 24.1491 23.4706 24.1491 24.1342C24.1491 24.7977 24.6887 25.3373 25.3522 25.3373H42.8933C43.5592 25.3373 44.0964 24.7977 44.0964 24.1342ZM44.0964 15.7367C44.0964 15.0707 43.5568 14.5335 42.8933 14.5335H30.2547C29.5887 14.5335 29.0516 15.0731 29.0516 15.7367C29.0516 16.4002 29.5912 16.9398 30.2547 16.9398H42.8933C43.5592 16.9398 44.0964 16.4002 44.0964 15.7367ZM44.0964 28.4169C44.0964 27.751 43.5568 27.2138 42.8933 27.2138H19.8101C19.1441 27.2138 18.607 27.7534 18.607 28.4169C18.607 29.0805 19.1465 29.62 19.8101 29.62H42.8933C43.5592 29.62 44.0964 29.0805 44.0964 28.4169ZM52.8853 9.52687V40.1253C52.8853 41.8728 51.4634 43.2947 49.7158 43.2947H34.5442L34.814 46.1433H37.8935C39.9449 46.1433 42.0424 47.7329 42.6695 49.76L42.9855 50.7808C43.0997 51.1454 43.0317 51.544 42.8056 51.8527C42.5796 52.1614 42.2199 52.3413 41.8358 52.3413L14.1613 52.3437C13.7797 52.3437 13.4199 52.1614 13.1915 51.8552C12.9654 51.5465 12.8974 51.1503 13.0116 50.7833L13.3276 49.7624C13.9522 47.7354 16.0498 46.1458 18.1012 46.1458H21.1807L21.4505 43.2972H6.27885C4.53128 43.2972 3.10938 41.8753 3.10938 40.1277V9.5293C3.10938 7.78173 4.53128 6.35983 6.27885 6.35983H22.4933V6.37927L23.4291 4.7605C23.9954 3.77857 25.2569 3.44071 26.2412 4.00705L27.6971 4.84805C28.1711 5.12027 28.5113 5.56261 28.6548 6.09492C28.6766 6.18242 28.6937 6.26992 28.7058 6.35742H49.7183C51.4658 6.35742 52.8877 7.77932 52.8877 9.5269L52.8853 9.52687ZM50.4766 9.52687C50.4766 9.11368 50.1291 8.76608 49.7158 8.76608H27.9063L27.9962 8.59838L22.8386 5.83969L21.633 7.92513L26.7226 10.6474L19.0711 23.8864L13.9572 21.1496L21.1153 8.76364L6.27901 8.76607C5.86581 8.76607 5.51821 9.11364 5.51821 9.52686V34.5589H50.4787V9.52873L50.4766 9.52687ZM13.0313 23.3881L12.5038 28.3538C12.4795 28.5895 12.5962 28.8204 12.8004 28.9395C12.8927 28.993 12.9973 29.0197 13.1018 29.0197C13.2257 29.0197 13.3497 28.9808 13.4566 28.9055L17.6445 25.86L13.0313 23.3906L13.0313 23.3881Z" fill="#403529"/>
</svg>
