<svg width="64" height="64" viewBox="0 0 64 64" fill="none" xmlns="http://www.w3.org/2000/svg">
<path d="M61.0039 11.337C60.8661 11.0488 60.6008 10.8472 60.287 10.7911C59.9758 10.735 59.6543 10.8396 59.4273 11.0641L56.4145 14.0768C55.9707 14.5156 55.2564 14.5182 54.8151 14.0768C54.6033 13.8651 54.486 13.587 54.486 13.2886C54.486 12.9876 54.6033 12.7019 54.8176 12.4876L57.8355 9.46969C58.06 9.2452 58.162 8.92377 58.1084 8.61C58.0549 8.29623 57.8508 8.02837 57.5625 7.89059C54.8151 6.58447 51.537 7.12782 49.3588 9.23244L10.1215 9.23754C5.98126 9.23754 2.61133 12.6075 2.61133 16.7477V46.1355C2.61133 49.3855 4.66997 52.1967 7.64957 53.2297C7.70059 53.3164 7.76436 53.3981 7.84345 53.4695C7.89192 53.5129 11.0858 56.2552 15.1421 56.2552C17.2518 56.2552 19.5987 55.5103 21.8536 53.2552C23.3612 51.745 24.0551 50.4286 24.2796 49.3087L52.1751 21.4132C54.073 22.0178 56.1776 21.8316 57.9276 20.8749C58.5322 20.5459 59.0883 20.1301 59.5807 19.6352C61.7567 17.4592 62.3306 14.125 61.0067 11.3393L61.0039 11.337ZM16.6519 14.1355C17.1952 14.1355 17.6315 14.5718 17.6315 15.1151C17.6315 15.6585 17.1952 16.0947 16.6519 16.0947C16.1085 16.0947 15.6723 15.6585 15.6723 15.1151C15.6723 14.5718 16.1085 14.1355 16.6519 14.1355ZM13.3866 14.1355C13.9299 14.1355 14.3661 14.5718 14.3661 15.1151C14.3661 15.6585 13.9299 16.0947 13.3866 16.0947C12.8432 16.0947 12.407 15.6585 12.407 15.1151C12.407 14.5718 12.8432 14.1355 13.3866 14.1355ZM10.1213 14.1355C10.6646 14.1355 11.1008 14.5718 11.1008 15.1151C11.1008 15.6585 10.6646 16.0947 10.1213 16.0947C9.57789 16.0947 9.14166 15.6585 9.14166 15.1151C9.14166 14.5718 9.57789 14.1355 10.1213 14.1355ZM4.57023 46.1355V20.9927H43.2308L25.7947 38.434C25.7896 38.4391 25.782 38.4416 25.7769 38.4467C25.7718 38.4518 25.7692 38.4595 25.7641 38.4646L20.0192 44.2121C19.9937 44.2121 19.9682 44.2172 19.9427 44.2197C19.8636 44.2223 19.782 44.2325 19.7003 44.2401C19.583 44.2503 19.4656 44.2631 19.3457 44.286C19.2666 44.3013 19.185 44.3192 19.1059 44.3396C18.9835 44.3677 18.8585 44.4008 18.736 44.4417C18.6595 44.4672 18.5804 44.4927 18.5013 44.5233C18.3712 44.5718 18.2411 44.6253 18.111 44.684C18.0345 44.7172 17.9605 44.7529 17.884 44.7911C17.7488 44.86 17.611 44.9366 17.4733 45.0156C17.3993 45.059 17.3279 45.0998 17.2539 45.1457C17.111 45.235 16.9682 45.3345 16.8253 45.4391C16.7564 45.4901 16.6875 45.536 16.6161 45.5871C16.4631 45.7044 16.3075 45.832 16.1544 45.9621C16.0932 46.0131 16.0319 46.0615 15.9707 46.1151C15.7539 46.3039 15.5396 46.5054 15.3202 46.7248C15.1085 46.9365 14.9018 47.1381 14.7003 47.332C14.634 47.3957 14.5677 47.457 14.5013 47.5182C14.3687 47.6432 14.236 47.7682 14.1085 47.8881C14.0294 47.9595 13.9554 48.0258 13.8789 48.0947C13.7666 48.1968 13.6518 48.2988 13.5422 48.3957C13.4631 48.4646 13.3865 48.5309 13.31 48.5973C13.208 48.6865 13.1059 48.7733 13.0064 48.8575C12.9274 48.9238 12.8534 48.985 12.7769 49.0488C12.6825 49.1279 12.5881 49.2044 12.4962 49.2784C12.4223 49.3371 12.3508 49.3957 12.2768 49.4519C12.1876 49.5207 12.1008 49.5896 12.0141 49.6559C11.9427 49.7095 11.8738 49.7631 11.8049 49.8141C11.7233 49.8753 11.6416 49.9366 11.56 49.9952C11.4937 50.0437 11.4274 50.0896 11.3636 50.1355C11.2845 50.1917 11.208 50.2452 11.134 50.2962C11.0728 50.3371 11.0115 50.3804 10.9529 50.4187C10.8789 50.4672 10.8075 50.5156 10.736 50.5615C10.6799 50.5973 10.6238 50.6355 10.5702 50.6687C10.5013 50.7121 10.4325 50.7554 10.3661 50.7962C10.3151 50.8268 10.2667 50.8575 10.2182 50.8881C10.1519 50.9263 10.0906 50.962 10.0294 51.0003C9.98349 51.0258 9.93758 51.0539 9.89676 51.0769C9.83553 51.1126 9.77686 51.1432 9.71819 51.1738C9.67992 51.1942 9.64165 51.2172 9.60594 51.235C9.54471 51.2682 9.48859 51.2962 9.42992 51.3243C9.40186 51.3396 9.36869 51.3549 9.34063 51.3702C9.259 51.411 9.18247 51.4468 9.11104 51.4799C9.09318 51.4876 9.07788 51.4927 9.06257 51.5003C9.01155 51.5233 8.96308 51.5462 8.91716 51.5641C6.38145 51.008 4.5651 48.7656 4.5651 46.1406L4.57023 46.1355ZM23.0525 45.5207C22.7745 45.2427 22.476 45.0207 22.1698 44.832L26.4734 40.5284L28.379 42.434L23.9861 46.8269C23.731 46.2912 23.3841 45.8524 23.055 45.5208L23.0525 45.5207ZM58.1931 18.2502C57.8334 18.6099 57.4278 18.9135 56.9864 19.1533C55.5604 19.9313 53.8104 20.0155 52.3078 19.3727C51.9405 19.2145 51.5145 19.2987 51.2313 19.5818L29.7646 41.0486L27.8564 39.1404L46.2877 20.7045L49.3234 17.6688C49.6066 17.3857 49.6882 16.9545 49.53 16.5872C48.6959 14.6663 49.0734 12.4265 50.4893 10.8806C50.4893 10.8806 50.4893 10.878 50.4918 10.878L50.4944 10.8755C50.5428 10.8219 50.5964 10.7607 50.6474 10.7097C51.8846 9.47243 53.6347 8.94436 55.3107 9.22498L53.428 11.1076C52.8413 11.6944 52.5199 12.4724 52.5224 13.299C52.525 14.1229 52.8464 14.8934 53.428 15.4724C54.6244 16.6688 56.5811 16.6714 57.7903 15.4724L59.6729 13.5898C59.9535 15.2658 59.4255 17.0158 58.1883 18.253L58.1931 18.2502Z" fill="#403529"/>
</svg>
