<svg width="48" height="48" viewBox="0 0 48 48" fill="none" xmlns="http://www.w3.org/2000/svg">
<g clip-path="url(#clip0_437_14929)">
<path d="M44.25 3.75H26.25C25.0125 3.75 24 4.76249 24 6V12C24 13.2375 25.0125 14.25 26.25 14.25H39V12.75H26.25C25.8375 12.75 25.5 12.4125 25.5 12V6C25.5 5.58751 25.8375 5.25 26.25 5.25H44.25C44.6625 5.25 45 5.58751 45 6V12C45 12.4125 44.6625 12.75 44.25 12.75H43.5V14.25H44.25C45.4875 14.25 46.5 13.2375 46.5 12V6C46.5 4.76249 45.4875 3.75 44.25 3.75Z" fill="#403529"/>
<path d="M33 18.75H15C13.7574 18.75 12.75 19.7574 12.75 21V27C12.75 28.2426 13.7574 29.25 15 29.25H33C34.2426 29.25 35.25 28.2426 35.25 27V21C35.25 19.7574 34.2426 18.75 33 18.75Z" fill="#403529"/>
<path d="M22.5 42C22.5 42.4125 22.1625 42.75 21.75 42.75H3.75C3.33751 42.75 3 42.4125 3 42V36C3 35.5875 3.33751 35.25 3.75 35.25H21.75C22.1625 35.25 22.5 35.5875 22.5 36V36.75H24V36C24 34.7625 22.9875 33.75 21.75 33.75H3.75C2.51249 33.75 1.5 34.7625 1.5 36V42C1.5 43.2375 2.51249 44.25 3.75 44.25H21.75C22.9875 44.25 24 43.2375 24 42V41.25H22.5V42Z" fill="#403529"/>
<path d="M8.58275 25.7838C8.92314 26.0114 9.3917 25.9232 9.62279 25.5758L11.1228 23.3258C11.3528 22.9812 11.2598 22.5154 10.9148 22.2858L8.66478 20.7858C7.84566 20.2451 7.0188 21.4865 7.8328 22.0338C7.83275 22.0338 8.64748 22.577 8.64748 22.577C4.42964 23.0504 1.77947 27.7701 3.53284 31.6227C3.65648 31.9039 3.93187 32.0709 4.22045 32.0709C4.74728 32.081 5.13076 31.5002 4.90673 31.0192C3.54941 28.0886 5.60926 24.4068 8.83022 24.0606L8.37474 24.7438C8.14476 25.0887 8.23778 25.5538 8.58275 25.7838Z" fill="#403529"/>
<path d="M15.4091 10.6183C14.1362 12.4384 13.8915 14.929 14.7843 16.9625C14.9081 17.2434 15.1835 17.4111 15.4721 17.4111C15.9984 17.4206 16.3826 16.8402 16.1584 16.359C14.8003 13.4284 16.8628 9.74551 20.0825 9.39948L19.6264 10.0836C19.0941 10.9034 20.3121 11.7327 20.8744 10.9156C23.0952 7.49568 23.2764 8.42659 19.9164 6.12559C19.0978 5.58502 18.2702 6.82607 19.0845 7.37364C19.0844 7.37364 19.898 7.91605 19.898 7.91605C18.1194 8.16484 16.4403 9.14282 15.4091 10.6183Z" fill="#403529"/>
<path d="M29.25 38.2491H19.3618C18.5219 35.902 15.0232 36.4801 15 38.9991C15.0234 41.5183 18.5224 42.0959 19.3618 39.7491H29.25C30.2351 39.7331 30.2364 38.2652 29.25 38.2491Z" fill="#403529"/>
<path d="M41.2491 17.25C41.6636 17.25 41.9991 16.9142 41.9991 16.5V11.8618C44.3461 11.0219 43.7681 7.52316 41.249 7.5C38.7299 7.52335 38.1522 11.0223 40.4991 11.8618V16.5C40.4991 16.9142 40.8345 17.25 41.2491 17.25Z" fill="#403529"/>
<path d="M36.749 36H30.749C29.7649 36.0158 29.7618 37.4836 30.7491 37.5H36.749C37.7332 37.4842 37.7363 36.0163 36.749 36Z" fill="#403529"/>
<path d="M36.7491 38.25H33.7491C32.764 38.266 32.7626 39.7337 33.7492 39.75H36.7491C37.7342 39.734 37.7356 38.2663 36.7491 38.25Z" fill="#403529"/>
<path d="M36.7491 40.5H32.2491C31.2645 40.5159 31.2622 41.9837 32.2491 42H36.7491C37.7337 41.9841 37.736 40.5163 36.7491 40.5Z" fill="#403529"/>
<path d="M44.999 18H38.999C38.0149 18.016 38.0118 19.4834 38.999 19.5H44.999C45.9831 19.484 45.9862 18.0166 44.999 18Z" fill="#403529"/>
<path d="M44.9991 20.25H41.9991C41.0141 20.2663 41.0126 21.7335 41.9991 21.75H44.9991C45.9841 21.7337 45.9856 20.2665 44.9991 20.25Z" fill="#403529"/>
<path d="M44.999 22.5H40.499C39.5145 22.5162 39.5122 23.9834 40.4991 24H44.999C45.9836 23.9838 45.9859 22.5166 44.999 22.5Z" fill="#403529"/>
</g>
<defs>
<clipPath id="clip0_437_14929">
<rect width="48" height="48" fill="white"/>
</clipPath>
</defs>
</svg>
