<svg width="19" height="11" viewBox="0 0 19 11" fill="none" xmlns="http://www.w3.org/2000/svg">
<path fill-rule="evenodd" clip-rule="evenodd" d="M9.48291 0.945331C9.51653 0.863766 9.56979 0.791776 9.63797 0.735771C9.70615 0.679766 9.78712 0.641483 9.87368 0.624333C9.96024 0.607182 10.0497 0.611695 10.1341 0.63747C10.2185 0.663245 10.2952 0.709481 10.3574 0.772063L14.6383 5.05242C14.6881 5.10212 14.7276 5.16116 14.7546 5.22616C14.7816 5.29116 14.7955 5.36084 14.7954 5.43121C14.7954 5.50158 14.7815 5.57126 14.7546 5.63626C14.7276 5.70125 14.688 5.76029 14.6382 5.80998L10.3566 10.0896C10.2561 10.1901 10.1198 10.2465 9.97769 10.2465C9.83558 10.2465 9.6993 10.19 9.59882 10.0896C9.49834 9.98909 9.4419 9.85284 9.44191 9.71077C9.44192 9.5687 9.49838 9.43245 9.59888 9.332L12.9674 5.96606L1.41557 5.9651C1.27364 5.96509 1.13752 5.90871 1.03717 5.80837C0.936818 5.70803 0.880447 5.57195 0.880459 5.43006C0.880471 5.28816 0.936864 5.15209 1.03723 5.05177C1.1376 4.95144 1.27373 4.89509 1.41566 4.8951L12.9675 4.89606L9.59953 1.52956C9.52434 1.45471 9.47312 1.3592 9.45235 1.25517C9.43159 1.15115 9.44223 1.0433 9.48291 0.945331Z" fill="#A92525"/>
</svg>
