<svg width="24" height="24" viewBox="0 0 24 24" fill="none" xmlns="http://www.w3.org/2000/svg">
<path d="M22.5795 16.6118C22.6696 16.645 22.7321 16.7276 22.7395 16.8233L22.8941 18.8342C22.8986 18.8917 22.8829 18.9487 22.8489 18.9952C22.2399 19.8274 20.8551 21.3923 19.7761 21.5272C17.5988 21.7994 15.4029 21.2036 13.4817 20.1435C11.8788 19.2591 10.004 18.005 8.40486 16.4058C6.80573 14.8067 5.55164 12.9319 4.66717 11.329C3.60708 9.40782 3.01131 7.21194 3.28347 5.03462C3.41835 3.95556 4.98327 2.57085 5.81547 1.96185C5.86198 1.92782 5.91905 1.91213 5.97651 1.91655L7.98736 2.07123C8.08307 2.0786 8.16572 2.14107 8.19891 2.23115L9.92375 6.91286C9.9511 6.98709 9.94101 7.06994 9.89664 7.13543L8.14445 9.722C8.14445 10.8331 9.99625 12.9626 10.9222 13.8885C11.848 14.8144 13.9776 16.6662 15.0887 16.6662L17.6753 14.9141C17.7408 14.8697 17.8236 14.8596 17.8978 14.8869L22.5795 16.6118Z" stroke="#8E8C63" stroke-width="2"/>
</svg>
